<?xml version="1.0" encoding="utf-8"?>
<!-- Generator: Adobe Illustrator 26.2.1, SVG Export Plug-In . SVG Version: 6.00 Build 0)  -->
<svg version="1.1" id="Layer_1" xmlns="http://www.w3.org/2000/svg" xmlns:xlink="http://www.w3.org/1999/xlink" x="0px" y="0px"
	 viewBox="0 0 1920 1080" style="enable-background:new 0 0 1920 1080;" xml:space="preserve">
<style type="text/css">
	.st0{fill:#5235D4;}
	.st1{clip-path:url(#SVGID_00000183948999688370355410000005197260269375568826_);}
	.st2{fill:#6146D8;}
</style>
<g id="Group_46" transform="translate(0 -2)">
	<path id="wave-haikei_5_2" class="st0" d="M0,222l64,29.7c64,29.6,192,89,320,87.5s256-63.9,384-82.4s256,6.9,384,51.7
		s256,109.2,384,152.7s256,66.1,320,77.5l64,11.3V2H0V222z"/>
	<g>
		<defs>
			<path id="SVGID_1_" d="M0,222l64,29.7c64,29.6,192,89,320,87.5s256-63.9,384-82.4s256,6.9,384,51.7s256,109.2,384,152.7
				s256,66.1,320,77.5l64,11.3V2H0V222z"/>
		</defs>
		<clipPath id="SVGID_00000131337376489492123340000009476602841605116831_">
			<use xlink:href="#SVGID_1_"  style="overflow:visible;"/>
		</clipPath>
		
			<g id="Mask_Group_2" transform="translate(0 2)" style="clip-path:url(#SVGID_00000131337376489492123340000009476602841605116831_);">
			<g id="circle-scatter-haikei_6_" transform="translate(6.581 -1.795)">
				<circle id="Ellipse_18" class="st2" cx="384.2" cy="384.2" r="210.8"/>
				<circle id="Ellipse_19" class="st2" cx="1333.6" cy="363.2" r="79.4"/>
				<circle id="Ellipse_20" class="st2" cx="1841.2" cy="442.6" r="190.2"/>
				<circle id="Ellipse_21" class="st2" cx="-6.6" cy="1.8" r="119.5"/>
				<circle id="Ellipse_22" class="st2" cx="1524.3" cy="47.6" r="95.8"/>
				<circle id="Ellipse_23" class="st2" cx="1062.2" cy="125.9" r="94.9"/>
			</g>
		</g>
	</g>
</g>
</svg>
