<?xml version="1.0" encoding="utf-8"?>
<!-- Generator: Adobe Illustrator 26.2.1, SVG Export Plug-In . SVG Version: 6.00 Build 0)  -->
<svg version="1.1" id="Layer_1" xmlns="http://www.w3.org/2000/svg" xmlns:xlink="http://www.w3.org/1999/xlink" x="0px" y="0px"
	 viewBox="0 0 1600 1080" style="enable-background:new 0 0 1600 1080;" xml:space="preserve">
<style type="text/css">
	.st0{display:none;}
	.st1{display:inline;fill:#5235D4;}
	.st2{display:inline;}
	.st3{fill:#0C0623;}
	.st4{fill:#FFFFFF;}
</style>
<g id="Layer_4" class="st0">
	<rect class="st1" width="1600" height="1080"/>
</g>
<g id="Logo_No_Fill">
</g>
<g id="Text">
	<g class="st0">
		<path class="st2" d="M723,575.5c-10.7,10.6-23.7,14.8-38.1,14.8c-37.3,0-51.8-23.5-51.9-49.2c-0.1-24.4,16.3-50.3,51.9-50.3
			c13.7,0,26,4.7,36.8,15.2l-16.5,16.3c-6.8-6.5-13.8-8.3-20.2-8.3c-18.3,0-25.5,14.9-25.4,27.3c0.1,12.3,6.6,26.3,25.4,26.3
			c6.4,0,15.6-2.7,22.4-9.6L723,575.5z"/>
		<path class="st2" d="M756.4,492.8v95.1h-24.7v-95.1L756.4,492.8L756.4,492.8z"/>
		<path class="st2" d="M783.6,491c6.9,0,14,4.2,14,12.6c0,8.3-7.1,12.5-14,12.5c-7.1,0-14.1-4.2-14.1-12.5
			C769.5,495.2,776.6,491,783.6,491z M796.1,587.8v-65.9H771v65.9H796.1z"/>
		<path class="st2" d="M879.1,561.4h-46.8c1.8,6,9.5,8.5,14.9,8.5c7.3,0,12.9-2.2,17.2-5.4l12.2,13.7c-8,7.5-19,11.1-30.5,11.1
			c-21.2,0-39.1-10.4-39.1-34.9c0-24.4,19.1-35.3,37.3-35.3C868.1,519.2,884.8,534.9,879.1,561.4z M856.7,545.4
			c-0.7-10.6-22.6-11-24.3,0H856.7z"/>
		<path class="st2" d="M936.4,587.8v-37c0-8.3-4.7-11.1-9.4-11.1c-6,0-11.5,4.1-11.5,12.9v35.3h-24.7v-67h22.1l1.1,7.3
			c5.7-6.6,14.1-9.1,21.2-9c14.1,0.1,26.2,7.6,26.2,31.5v37.2h-25L936.4,587.8L936.4,587.8z"/>
		<path class="st2" d="M1005.9,501.8v19.4h15.1v19.1h-15.2v22c0.1,4.7,2.8,6.5,6.6,6.5c2.4,0,5.3-1,7.3-2.3l5.4,18.4
			c-5.7,3.3-12.3,4.5-19.3,4.5c-13.3,0-25.2-6.1-24.8-27.1v-22h-10.7v-19.1H981v-16.7L1005.9,501.8z"/>
		<path class="st2" d="M1058.4,492.8v95.1h-24.7v-95.1L1058.4,492.8L1058.4,492.8z"/>
		<path class="st2" d="M1141.4,561.4h-46.8c1.8,6,9.5,8.5,14.9,8.5c7.3,0,12.9-2.2,17.2-5.4l12.2,13.7c-8,7.5-19,11.1-30.5,11.1
			c-21.2,0-39.1-10.4-39.1-34.9c0-24.4,19.1-35.3,37.3-35.3C1130.4,519.2,1147.1,534.9,1141.4,561.4z M1119,545.4
			c-0.7-10.6-22.6-11-24.3,0H1119z"/>
		<path class="st2" d="M1221.4,561.4h-46.8c1.8,6,9.5,8.5,14.9,8.5c7.3,0,12.9-2.2,17.2-5.4l12.2,13.7c-8,7.5-19,11.1-30.5,11.1
			c-21.2,0-39.1-10.4-39.1-34.9c0-24.4,19.1-35.3,37.3-35.3C1210.5,519.2,1227.1,534.9,1221.4,561.4z M1199.1,545.4
			c-0.7-10.6-22.6-11-24.3,0H1199.1z"/>
	</g>
	<g>
		<path class="st3" d="M549.4,552.3c0,30.2-13.3,57.2-34.4,75.6l-35.6-35.6c12.1-9.1,19.9-23.7,19.9-40c0-27.7-22.4-50.1-50.1-50.1
			s-50.1,22.5-50.1,50.1c0,16.3,7.8,30.8,19.9,40l-35.6,35.6c-21.1-18.4-34.4-45.4-34.4-75.6c0-55.4,44.9-100.3,100.3-100.3
			C504.5,452.1,549.4,497,549.4,552.3z"/>
		<g>
			<path class="st4" d="M625.3,590.6c-8.1-4.2-14.4-10.1-19-17.7c-4.6-7.6-6.9-16.2-6.9-25.8s2.3-18.2,6.9-25.8
				c4.6-7.6,10.9-13.5,19-17.7s17.1-6.3,27.2-6.3c9.2,0,17.5,1.6,24.7,4.9c7.3,3.3,13.2,8,17.9,14.1l-20.3,18.1
				c-5.9-7.4-12.8-11.1-20.8-11.1c-6.7,0-12.1,2.2-16.2,6.5c-4.1,4.3-6.1,10.1-6.1,17.3c0,7.3,2,13,6.1,17.3s9.5,6.5,16.2,6.5
				c8,0,14.9-3.7,20.8-11.1l20.3,18.1c-4.7,6.2-10.7,10.9-17.9,14.1c-7.3,3.3-15.5,4.9-24.7,4.9
				C642.5,596.9,633.4,594.8,625.3,590.6z"/>
			<path class="st4" d="M703.5,493.8h30.7v100.9h-30.7V493.8z"/>
			<path class="st4" d="M749.8,510c-3.4-2.9-5.1-6.7-5.1-11.2s1.7-8.3,5.1-11.2c3.4-2.9,7.9-4.4,13.4-4.4c5.6,0,10.1,1.4,13.5,4.2
				c3.4,2.8,5,6.4,5,10.9c0,4.7-1.7,8.6-5,11.6c-3.4,3-7.8,4.6-13.5,4.6C757.7,514.4,753.2,512.9,749.8,510z M747.8,520.4h30.7v74.4
				h-30.7V520.4z"/>
			<path class="st4" d="M870.9,564.7h-51.7c1.1,2.8,2.9,5,5.4,6.5s5.7,2.2,9.5,2.2c3.3,0,6-0.4,8.2-1.2s4.6-2.2,7.3-4.2l16,16.2
				c-7.3,8-18.1,12-32.5,12c-9,0-16.9-1.7-23.7-5s-12.1-7.9-15.8-13.8c-3.7-5.9-5.6-12.5-5.6-19.9s1.8-14.1,5.5-19.9
				c3.7-5.8,8.7-10.4,15.1-13.7c6.4-3.3,13.6-4.9,21.6-4.9c7.5,0,14.4,1.5,20.6,4.5c6.2,3,11.1,7.4,14.8,13.2s5.5,12.7,5.5,20.8
				C871.3,557.9,871.2,560.3,870.9,564.7z M822.7,542.5c-2.1,1.7-3.4,4.2-4.1,7.3h23.9c-0.6-3.1-2-5.5-4.1-7.3s-4.7-2.7-7.9-2.7
				C827.5,539.9,824.8,540.8,822.7,542.5z"/>
			<path class="st4" d="M954.7,527.3c5.6,5.5,8.4,13.9,8.4,25v42.4h-30.7v-37.1c0-8.5-3-12.8-9.1-12.8c-3.4,0-6.2,1.2-8.4,3.6
				c-2.1,2.4-3.2,6.2-3.2,11.4v34.9H881v-74.4h29.2v7.3c2.9-2.9,6.3-5.1,10.1-6.5s7.9-2.2,12.4-2.2
				C941.8,519,949.1,521.8,954.7,527.3z"/>
			<path class="st4" d="M1031.2,592.1c-4.6,2.6-10.9,3.9-18.9,3.9c-10.4,0-18.4-2.5-24.1-7.5c-5.6-5-8.4-12.6-8.4-22.6v-19h-10.2
				v-22.4h10.2v-20.8h30.7v20.8h15.2v22.4h-15.2v18.8c0,2.3,0.6,4,1.8,5.3s2.7,1.9,4.6,1.9c2.6,0,4.9-0.7,6.9-2L1031.2,592.1z"/>
			<path class="st4" d="M1038.9,493.8h30.7v100.9h-30.7V493.8z"/>
			<path class="st4" d="M1162,564.7h-51.7c1.1,2.8,2.9,5,5.4,6.5s5.7,2.2,9.5,2.2c3.3,0,6-0.4,8.2-1.2s4.6-2.2,7.3-4.2l16,16.2
				c-7.3,8-18.1,12-32.5,12c-9,0-16.9-1.7-23.7-5c-6.8-3.3-12.1-7.9-15.8-13.8c-3.7-5.9-5.6-12.5-5.6-19.9s1.8-14.1,5.5-19.9
				c3.7-5.8,8.7-10.4,15.1-13.7s13.6-4.9,21.6-4.9c7.5,0,14.4,1.5,20.6,4.5s11.1,7.4,14.8,13.2c3.7,5.8,5.5,12.7,5.5,20.8
				C1162.4,557.9,1162.3,560.3,1162,564.7z M1113.9,542.5c-2.1,1.7-3.4,4.2-4.1,7.3h23.9c-0.6-3.1-2-5.5-4.1-7.3s-4.7-2.7-7.9-2.7
				C1118.6,539.9,1115.9,540.8,1113.9,542.5z"/>
			<path class="st4" d="M1250.8,564.7h-51.7c1.1,2.8,2.9,5,5.4,6.5s5.7,2.2,9.5,2.2c3.3,0,6-0.4,8.2-1.2s4.6-2.2,7.3-4.2l16,16.2
				c-7.3,8-18.1,12-32.5,12c-9,0-16.9-1.7-23.7-5c-6.8-3.3-12.1-7.9-15.8-13.8c-3.7-5.9-5.6-12.5-5.6-19.9s1.8-14.1,5.5-19.9
				c3.7-5.8,8.7-10.4,15.1-13.7s13.6-4.9,21.6-4.9c7.5,0,14.4,1.5,20.6,4.5s11.1,7.4,14.8,13.2c3.7,5.8,5.5,12.7,5.5,20.8
				C1251.2,557.9,1251.1,560.3,1250.8,564.7z M1202.6,542.5c-2.1,1.7-3.4,4.2-4.1,7.3h23.9c-0.6-3.1-2-5.5-4.1-7.3s-4.7-2.7-7.9-2.7
				C1207.4,539.9,1204.7,540.8,1202.6,542.5z"/>
		</g>
	</g>
</g>
<g id="Layer_6">
</g>
<g id="Layer_5" class="st0">
</g>
</svg>
